<?xml version="1.0" encoding="iso-8859-1"?>
<!-- Uploaded to: SVG Repo, www.svgrepo.com, Transformed by: SVG Repo Tools -->
<svg height="800px" width="800px" version="1.1" id="Layer_1" xmlns="http://www.w3.org/2000/svg" xmlns:xlink="http://www.w3.org/1999/xlink" 
	 viewBox="0 0 512 512" xml:space="preserve">
<path d="M366.464,475.136l-84.821-237.653V17.067c0-9.899-10.752-17.067-25.6-17.067h-0.085c-14.763,0-25.515,7.168-25.515,17.067
	v220.416l-84.821,237.483c-0.341,0.939-0.512,1.963-0.512,2.901c0,17.579,26.539,25.6,51.2,25.6c3.243,0,6.144-1.792,7.595-4.693
	l0.939-1.792l0.256,0.427C207.317,508.075,223.616,512,238.976,512c2.816,0,5.461-1.451,7.083-3.84l9.984-14.933l9.984,14.933
	c1.536,2.389,4.181,3.84,7.083,3.84c15.36,0,31.659-3.925,33.877-14.592l0.256-0.427l0.853,1.792
	c1.451,2.901,4.437,4.693,7.68,4.693c3.328,0,6.656-0.171,9.899-0.427c20.992-1.877,40.533-9.643,41.216-24.405
	C366.891,478.464,366.805,475.989,366.464,475.136z M247.509,18.773c1.365-0.683,4.267-1.707,8.448-1.707h0.085
	c4.181,0,7.168,1.024,8.533,1.707v218.453c-1.365,0.683-4.267,1.707-8.533,1.707h-0.085c-4.181,0-7.168-1.024-8.448-1.707V18.773z
	 M242.731,253.696c3.84,1.451,8.277,2.304,13.312,2.304c0.768,0,1.536,0,2.219-0.085c0.597,0,1.28-0.085,1.877-0.171
	c0.768,0,1.451-0.085,2.219-0.171c0.939-0.171,1.792-0.341,2.56-0.512c0.597-0.085,1.109-0.256,1.707-0.427
	c0.853-0.171,1.707-0.512,2.475-0.768l17.92,49.579c-4.352,1.28-9.472,2.219-15.019,2.816c-2.475,0.341-5.12,0.597-7.765,0.683
	c-2.645,0.171-5.376,0.256-8.192,0.256c-11.605,0-22.699-1.365-31.061-3.84L242.731,253.696z M219.264,319.488
	c10.155,3.072,22.955,4.779,36.779,4.779c5.205,0,10.24-0.256,15.019-0.683c1.621-0.171,3.157-0.341,4.693-0.512
	c0.256-0.085,0.512-0.085,0.768-0.085c5.888-0.853,11.435-2.048,16.299-3.499l4.779,13.483c-1.024,0.768-2.731,1.707-5.035,2.645
	c-0.597,0.256-1.195,0.427-1.792,0.683c-2.645,0.939-5.973,1.877-9.813,2.731c-1.792,0.341-3.755,0.683-5.888,1.024
	c-1.707,0.256-3.413,0.427-5.291,0.597c-4.181,0.427-8.704,0.683-13.739,0.683c-23.211,0-37.376-5.205-41.643-8.363L219.264,319.488
	z M321.067,486.229h-0.085l-6.144-12.203c-2.901-5.717-12.373-5.717-15.275,0l-8.533,17.067c-0.085,0.341-0.256,0.597-0.341,0.939
	c-1.877,0.939-6.315,2.304-13.141,2.731l-14.421-21.589c-1.621-2.389-4.267-3.84-7.083-3.84c-2.901,0-5.547,1.451-7.083,3.84
	l-14.507,21.589c-6.741-0.427-11.264-1.792-13.056-2.731c-0.171-0.341-0.256-0.597-0.427-0.939l-8.533-17.067
	c-2.901-5.717-12.373-5.717-15.275,0l-6.059,12.203c-16.64-0.853-26.453-5.632-28.587-7.851l46.08-129.024
	c11.52,6.144,29.44,9.045,47.445,9.045c10.155,0,20.309-0.939,29.355-2.901c6.912-1.451,13.141-3.499,18.091-6.144l45.995,128.768
	C347.008,480.768,337.28,485.376,321.067,486.229z"/>
<path style="fill:#593B32;" d="M264.576,18.773v218.453c-1.365,0.683-4.267,1.707-8.533,1.707h-0.085V17.067h0.085
	C260.224,17.067,263.211,18.091,264.576,18.773z"/>
<path style="fill:#7A5A50;" d="M255.957,17.067v221.867c-4.181,0-7.168-1.024-8.448-1.707V18.773
	C248.875,18.091,251.776,17.067,255.957,17.067z"/>
<path style="fill:#7E939E;" d="M287.019,303.445c-4.352,1.28-9.472,2.219-15.019,2.816l-13.739-50.347
	c0.597,0,1.28-0.085,1.877-0.171c0.768,0,1.451-0.085,2.219-0.171c0.939-0.171,1.792-0.341,2.56-0.512
	c0.597-0.085,1.109-0.256,1.707-0.427c0.853-0.171,1.707-0.512,2.475-0.768L287.019,303.445z"/>
<path style="fill:#AFAFAF;" d="M272,306.261c-2.475,0.341-5.12,0.597-7.765,0.683c-2.645,0.171-5.376,0.256-8.192,0.256
	c-11.605,0-22.699-1.365-31.061-3.84l17.749-49.664c3.84,1.451,8.277,2.304,13.312,2.304c0.768,0,1.536,0,2.219-0.085L272,306.261z"
	/>
<path style="fill:#7E939E;" d="M297.6,332.971c-1.024,0.768-2.731,1.707-5.035,2.645c-0.597,0.256-1.195,0.427-1.792,0.683
	c-2.645,0.939-5.973,1.877-9.813,2.731l-4.437-16.043c5.888-0.853,11.435-2.048,16.299-3.499L297.6,332.971z"/>
<path style="fill:#AFAFAF;" d="M280.96,339.029c-1.792,0.341-3.755,0.683-5.888,1.024c-1.707,0.256-3.413,0.427-5.291,0.597
	c-4.181,0.427-8.704,0.683-13.739,0.683c-23.211,0-37.376-5.205-41.643-8.363l4.864-13.483c10.155,3.072,22.955,4.779,36.779,4.779
	c5.205,0,10.24-0.256,15.019-0.683c1.621-0.171,3.157-0.341,4.693-0.512c0.256-0.085,0.512-0.085,0.768-0.085L280.96,339.029z"/>
<path style="fill:#F6981E;" d="M349.483,478.123c-2.475,2.645-12.203,7.253-28.416,8.107l-35.669-130.731
	c6.912-1.451,13.141-3.499,18.091-6.144L349.483,478.123z"/>
<path style="fill:#FDB50D;" d="M321.067,486.229h-0.085l-6.144-12.203c-2.901-5.717-12.373-5.717-15.275,0l-8.533,17.067
	c-0.085,0.341-0.256,0.597-0.341,0.939c-1.877,0.939-6.315,2.304-13.141,2.731l-14.421-21.589c-1.621-2.389-4.267-3.84-7.083-3.84
	c-2.901,0-5.547,1.451-7.083,3.84l-14.507,21.589c-6.741-0.427-11.264-1.792-13.056-2.731c-0.171-0.341-0.256-0.597-0.427-0.939
	l-8.533-17.067c-2.901-5.717-12.373-5.717-15.275,0l-6.059,12.203c-16.64-0.853-26.453-5.632-28.587-7.851l46.08-129.024
	c11.52,6.144,29.44,9.045,47.445,9.045c10.155,0,20.309-0.939,29.355-2.901L321.067,486.229z"/>
<g>
</g>
<g>
</g>
<g>
</g>
<g>
</g>
<g>
</g>
<g>
</g>
<g>
</g>
<g>
</g>
<g>
</g>
<g>
</g>
<g>
</g>
<g>
</g>
<g>
</g>
<g>
</g>
<g>
</g>
</svg>